<svg xmlns="http://www.w3.org/2000/svg" id="Layer_1" viewBox="0 0 48 48"><defs><style>.cls-1{fill:#747c7d;}.cls-1,.cls-2{stroke-width:0px;}.cls-2{fill:#fff;}</style></defs><circle class="cls-1" cx="24" cy="24" r="24"></circle><path class="cls-2" d="m38.55,25.76c-1.17,13.91-18.21,18.91-27.06,8.27-8.73-10.76-.08-26.59,13.72-24.91,3.44.43,6.71,2.08,9.06,4.62.02.02-.01.06-.03.03-2.45-2.4-5.69-3.95-9.07-4.31-10.96-1.19-19.61,9.54-15.98,19.98,5.77,15.34,27.18,12.08,29.37-3.7h0Z"></path><path class="cls-2" d="m23.41,40.02c-4.58,0-8.96-2.05-12.11-5.83-4.12-5.09-4.73-11.77-1.59-17.45,3.12-5.64,9.07-8.65,15.53-7.87,3.5.44,6.85,2.15,9.22,4.7.06.06.09.17.06.26-.02.09-.11.17-.2.2-.09.02-.2-.01-.26-.08-2.42-2.37-5.59-3.88-8.91-4.23-5.09-.56-10.05,1.53-13.27,5.58-3.2,4.02-4.12,9.28-2.45,14.08,2.5,6.65,8.53,10.46,15.37,9.7,5.89-.66,12.36-5.04,13.51-13.35.02-.13.14-.23.28-.21.13.01.23.13.22.27-.54,6.43-4.62,11.6-10.63,13.5-1.58.5-3.18.74-4.76.74Zm-5.76-29.72c-2.69,1.07-5.02,2.92-6.72,5.41.17-.25.36-.49.55-.73,1.67-2.1,3.8-3.69,6.18-4.68Z"></path><path class="cls-2" d="m43.69,17.18c-.19-.21-.46-.37-.8-.5-.34-.13-1.6-.4-3.04.47-.75.42-1.48,1.02-2.2,1.73-.72.72-2.54,3.3-3.26,4.29-.72.99-1.43,1.96-2.14,2.93-.71.97-1.41,1.85-2.12,2.66-.71.8-1.42,1.49-2.13,2.05s-1.42.92-2.13,1.08c.54-.63,1.03-1.44,1.49-2.41.46-.97.87-2.01,1.23-3.11.37-1.1.67-2.21.91-3.32s.41-2.13.49-3.04c.21-.35.39-.72.56-1.09s.23-.68.19-.92c-.01-.1-.05-.18-.1-.26-.05-.07-.14-.11-.25-.11-.32,0-.54.12-.68.37-.14.25-.24.57-.3.96-.04.63-.13,1.33-.27,2.08-.28.74-.64,1.51-1.09,2.3-.44.79-.94,1.57-1.48,2.33-.54.76-1.12,1.49-1.73,2.19-.61.7-1.23,1.33-1.85,1.88-.63.55-1.24,1.02-1.85,1.4s-1.18.63-1.72.75c.28-.33.58-.74.9-1.23.32-.49.64-1.03.96-1.63.32-.59.62-1.22.9-1.89.29-.67.54-1.35.77-2.05.23-.69.4-1.38.54-2.06.13-.68.2-1.33.2-1.95,0-.8-.12-1.5-.36-2.09-.24-.59-.55-1.08-.94-1.46-.39-.38-.84-.67-1.34-.86-.51-.19-1.03-.28-1.56-.28-.99,0-1.87.22-2.64.65-.77.43-1.42.98-1.95,1.64s-.93,1.4-1.21,2.2c-.28.8-.42,1.58-.42,2.32,0,.47.06.93.17,1.35.12.43.29.8.54,1.11.24.32.55.57.92.75.37.18.81.27,1.32.27s1.02-.12,1.48-.44c.5-.34.68-.96.68-.96,0,0-.43.52-.75.74-.42.29-.89.44-1.42.44-.44,0-.82-.07-1.13-.22-.32-.15-.58-.35-.79-.61-.21-.26-.36-.57-.46-.91-.1-.35-.15-.72-.15-1.12,0-.72.15-1.48.44-2.28.29-.8.71-1.55,1.25-2.23.54-.68,1.19-1.25,1.94-1.7.75-.45,1.58-.68,2.49-.68.43,0,.83.07,1.21.22.38.15.71.37.99.68.28.31.5.71.67,1.19.16.48.25,1.06.25,1.73s-.08,1.44-.23,2.24c-.15.8-.35,1.59-.59,2.38-.24.79-.51,1.56-.8,2.31-.29.75-.58,1.43-.88,2.04-.29.61-.56,1.13-.81,1.56-.25.43-.45.73-.59.89-.09,0-.2,0-.36.02-.15.01-.3.03-.46.06-.15.03-.28.08-.39.14-.11.06-.16.14-.16.24s.05.18.16.24c.11.06.27.09.47.09.24,0,.54-.19.89-.58.58-.1,1.19-.32,1.82-.66.63-.34,1.25-.77,1.87-1.29.62-.52,1.23-1.1,1.83-1.76s1.16-1.35,1.68-2.08c.52-.73,1.01-1.48,1.45-2.24.44-.76.82-1.51,1.12-2.24-.15.69-.32,1.41-.53,2.15-.21.74-.42,1.46-.64,2.16-.22.71-.44,1.38-.68,2.03-.23.65-.45,1.22-.66,1.73-.21.51-.4.94-.57,1.29-.17.35-.31.58-.42.7-.09,0-.2,0-.36.02-.15.01-.3.03-.46.06-.15.03-.28.08-.39.14-.11.06-.16.14-.16.24s.05.18.16.24c.11.06.27.09.47.09.26,0,.55-.19.89-.57.77-.12,1.52-.45,2.25-.99.73-.54,1.45-1.2,2.17-1.98.72-.79,1.43-1.66,2.15-2.61.71-.96,1.43-1.93,2.15-2.91.72-.99,2.61-3.57,3.38-4.29.77-.72,1.27-1.17,2.08-1.61,1.82-.99,3.13-.72,3.38-.61.25.12.43.26.54.44.22.35.17.95.15,1.12,0,0,.38-.95-.18-1.53Zm-13.65,2.19l.02-.09v-.04c.02-.46.05-.81.09-1.05.04-.24.13-.36.29-.36.05,0,.08.02.08.05,0,.04,0,.07,0,.09.02.17-.02.38-.12.63-.1.25-.23.51-.37.79v-.04Z"></path><path class="cls-2" d="m24.75,32.97c-.25,0-.45-.04-.6-.12-.26-.14-.29-.35-.29-.46s.04-.31.29-.46c.13-.07.29-.13.47-.16.16-.03.32-.05.49-.07.1,0,.18-.01.25-.02.07-.1.17-.27.32-.57.17-.34.35-.75.56-1.27.2-.51.42-1.08.65-1.72.23-.65.46-1.32.67-2.02.21-.67.41-1.36.61-2.06-.04.06-.07.13-.11.19-.45.77-.94,1.53-1.46,2.26-.53.73-1.1,1.44-1.7,2.1-.6.67-1.23,1.27-1.85,1.79-.63.53-1.28.97-1.91,1.32-.62.34-1.23.56-1.81.67-.38.41-.72.6-1.02.6-.25,0-.45-.04-.6-.12-.26-.14-.29-.35-.29-.46s.04-.31.29-.46c.13-.07.29-.13.47-.16.16-.03.32-.05.49-.07.1,0,.19-.01.26-.02.13-.16.29-.41.49-.76.25-.42.52-.94.8-1.54.29-.6.58-1.28.87-2.02.29-.73.56-1.51.8-2.29.24-.78.44-1.57.59-2.36.15-.78.22-1.52.22-2.19,0-.64-.08-1.19-.23-1.64-.15-.45-.36-.82-.62-1.1-.25-.28-.55-.49-.89-.62-.35-.13-.72-.2-1.11-.2-.86,0-1.66.22-2.36.64-.72.43-1.35.98-1.87,1.64-.52.66-.93,1.38-1.21,2.16-.28.77-.42,1.51-.42,2.2,0,.38.05.73.14,1.06.09.31.23.59.41.83.18.23.41.41.69.54.28.13.63.2,1.03.2.48,0,.89-.13,1.27-.39.29-.2.7-.69.7-.69.08-.09.21-.12.31-.06.1.06.15.18.12.29,0,.03-.22.71-.78,1.09-.47.32-1.01.48-1.62.48-.55,0-1.03-.1-1.43-.3-.41-.2-.75-.48-1.01-.82-.26-.34-.46-.75-.58-1.2-.12-.45-.18-.92-.18-1.42,0-.77.15-1.57.43-2.4.29-.83.71-1.59,1.26-2.27.55-.69,1.23-1.26,2.03-1.71.81-.45,1.74-.68,2.76-.68.56,0,1.12.1,1.65.3.54.2,1.02.51,1.43.91.41.41.75.93,1,1.55.25.62.37,1.35.37,2.18,0,.64-.07,1.31-.21,2-.13.69-.32,1.39-.55,2.09-.23.7-.49,1.39-.77,2.07-.29.67-.59,1.31-.91,1.91-.32.59-.64,1.15-.97,1.64-.14.21-.28.41-.41.6.29-.12.58-.28.88-.47.59-.37,1.2-.83,1.82-1.37s1.23-1.17,1.83-1.86c.6-.69,1.18-1.42,1.71-2.17.53-.75,1.03-1.53,1.46-2.31.43-.77.79-1.54,1.07-2.27.13-.7.22-1.39.26-2.01.07-.44.18-.79.33-1.07.18-.33.5-.5.9-.5.24,0,.38.11.45.21.08.11.13.23.15.37.04.29-.03.64-.21,1.06-.16.36-.34.72-.54,1.06-.09.91-.25,1.92-.49,3.02-.24,1.11-.55,2.24-.92,3.35-.37,1.11-.79,2.17-1.24,3.14-.32.68-.67,1.29-1.03,1.81.43-.18.86-.45,1.29-.78.69-.55,1.4-1.22,2.09-2.01.7-.79,1.4-1.68,2.1-2.64l2.6-3.58c.88-1.22,2.21-3.07,2.82-3.67.8-.79,1.54-1.38,2.25-1.77,1.38-.83,2.69-.69,3.25-.48.37.14.68.33.9.56.66.69.25,1.75.23,1.8-.05.12-.18.18-.3.15-.12-.03-.2-.15-.18-.28.02-.17.05-.69-.11-.96-.08-.13-.23-.25-.43-.34-.01,0-1.22-.44-3.16.6-.79.43-1.28.88-2.03,1.57-.52.48-1.64,1.91-3.34,4.25-.72.99-1.43,1.96-2.15,2.92-.72.96-1.44,1.85-2.16,2.63-.72.79-1.47,1.47-2.21,2.01-.73.54-1.5.88-2.27,1.02-.37.39-.7.58-1.02.58Zm.5-.78s-.07,0-.11,0c-.14.01-.29.03-.43.06-.12.02-.23.06-.32.11.05.07.15.1.35.1.08,0,.25-.04.5-.28Zm-6.47,0s-.06,0-.09,0c-.14.01-.29.03-.43.06-.13.03-.23.06-.32.11.04.06.14.1.35.1.08,0,.23-.04.48-.27Zm10.36-10.5c.05.06.08.14.06.22-.15.69-.33,1.42-.53,2.16-.21.74-.42,1.46-.64,2.17-.22.7-.45,1.38-.68,2.04-.23.65-.45,1.23-.66,1.74-.1.25-.2.48-.29.69.25-.41.5-.86.73-1.36.45-.95.86-1.99,1.22-3.09.36-1.09.67-2.2.91-3.3.24-1.1.4-2.11.49-3.01,0-.04.01-.07.03-.1.05-.08.09-.16.13-.24-.08-.04-.13-.13-.13-.22,0-.02,0-.07,0-.08l.02-.09c.02-.46.05-.8.08-1.04-.1.21-.18.48-.23.8-.03.62-.13,1.33-.28,2.09-.08.21-.16.41-.25.62Zm-6.28-3.16c.02.06.04.12.07.18.17.5.26,1.11.26,1.81s-.08,1.47-.23,2.28c-.15.81-.36,1.62-.6,2.41-.25.8-.52,1.58-.81,2.33-.29.75-.59,1.44-.88,2.05-.04.09-.08.18-.13.26.18-.3.36-.62.54-.95.31-.58.61-1.21.89-1.87.28-.66.54-1.34.76-2.02.22-.68.4-1.37.53-2.03.13-.66.2-1.3.2-1.91,0-.77-.11-1.44-.34-2-.08-.19-.16-.37-.25-.54Zm-5.28-1.57c-.21.08-.4.17-.59.28-.74.41-1.37.95-1.88,1.58-.51.64-.9,1.35-1.17,2.13-.18.53-.3,1.04-.36,1.54.08-.41.19-.84.35-1.27.3-.82.73-1.6,1.29-2.3.56-.7,1.23-1.29,2-1.76.12-.07.24-.14.37-.2Zm12.86,1.12h0s0,0,0,0Zm.03-.19l-.19.03s.02.05.03.08l.17-.09s0-.01,0-.02Zm11.47-1.12c-.51,0-1.2.12-1.96.57-.14.08-.29.17-.44.27.05-.03.1-.06.15-.08.97-.53,1.82-.71,2.46-.75-.06,0-.13,0-.21,0Z"></path></svg>