<?xml version="1.0" encoding="UTF-8"?><svg id="Layer_1" xmlns="http://www.w3.org/2000/svg" viewBox="0 0 255.12 255.12"><defs><style>.cls-1{fill:#fff;stroke-width:0px;}</style></defs><path class="cls-1" d="m193.34,135.11c-6.41,76.05-99.53,103.35-147.94,45.22-47.7-58.84-.45-145.34,74.99-136.16,18.8,2.36,36.68,11.39,49.54,25.27.12.12-.08.31-.19.19-13.39-13.13-31.11-21.59-49.58-23.55-59.91-6.53-107.2,52.17-87.38,109.24,31.56,83.84,148.56,66.03,160.55-20.21h0Z"/><path class="cls-1" d="m227.24,82.43c-1.07-1.13-2.53-2.05-4.39-2.75-1.86-.7-8.73-2.18-16.62,2.55-4.11,2.3-8.07,5.56-12.03,9.48-3.96,3.93-7.9,8.44-11.83,13.53-3.93,5.09-7.85,10.33-11.78,15.72-3.93,5.39-7.82,10.73-11.68,16.02-3.86,5.29-7.72,10.13-11.58,14.52-3.86,4.39-7.74,8.12-11.63,11.18-3.89,3.06-7.77,5.02-11.63,5.89,2.93-3.46,5.64-7.85,8.14-13.18,2.5-5.32,4.74-11,6.74-17.02,2-6.02,3.66-12.08,4.99-18.17,1.33-6.09,2.23-11.63,2.7-16.62,1.13-1.93,2.15-3.91,3.04-5.94.9-2.03,1.25-3.71,1.05-5.04-.07-.53-.25-1-.55-1.4-.3-.4-.75-.6-1.35-.6-1.73,0-2.98.68-3.74,2.05-.77,1.37-1.31,3.11-1.65,5.24-.2,3.46-.7,7.26-1.5,11.38-1.53,4.06-3.51,8.25-5.94,12.58-2.43,4.33-5.13,8.57-8.09,12.73-2.96,4.16-6.11,8.15-9.43,11.98-3.33,3.83-6.71,7.25-10.13,10.28-3.43,3.03-6.81,5.57-10.13,7.64s-6.46,3.43-9.38,4.09c1.53-1.8,3.18-4.04,4.94-6.74,1.76-2.7,3.51-5.66,5.24-8.88,1.73-3.23,3.38-6.67,4.94-10.33,1.56-3.66,2.96-7.39,4.19-11.18,1.23-3.79,2.21-7.55,2.95-11.28.73-3.73,1.1-7.29,1.1-10.68,0-4.39-.65-8.2-1.95-11.43-1.3-3.23-3.01-5.89-5.14-7.99-2.13-2.1-4.58-3.66-7.34-4.69-2.76-1.03-5.61-1.55-8.54-1.55-5.39,0-10.2,1.18-14.43,3.54-4.23,2.36-7.79,5.36-10.68,8.99-2.89,3.63-5.11,7.64-6.64,12.03-1.53,4.39-2.3,8.62-2.3,12.68,0,2.59.32,5.06.95,7.39.63,2.33,1.61,4.36,2.94,6.09,1.33,1.73,3.01,3.09,5.04,4.09,2.03,1,4.44,1.5,7.24,1.5s5.56-.68,8.09-2.4c2.73-1.85,3.74-5.23,3.74-5.23,0,0-2.35,2.82-4.09,4.03-2.3,1.6-4.88,2.39-7.74,2.39-2.4,0-4.46-.4-6.19-1.2-1.73-.8-3.16-1.91-4.29-3.34-1.13-1.43-1.96-3.09-2.5-4.99-.53-1.9-.8-3.94-.8-6.14,0-3.93.8-8.09,2.4-12.48,1.6-4.39,3.88-8.45,6.84-12.18,2.96-3.73,6.49-6.82,10.58-9.28,4.09-2.46,8.63-3.69,13.63-3.69,2.33,0,4.52.4,6.59,1.2,2.06.8,3.86,2.05,5.39,3.74,1.53,1.7,2.74,3.86,3.64,6.49.9,2.63,1.35,5.77,1.35,9.43s-.42,7.87-1.25,12.23c-.83,4.36-1.91,8.7-3.24,13.03-1.33,4.33-2.8,8.54-4.39,12.63-1.6,4.09-3.19,7.8-4.79,11.13-1.6,3.33-3.08,6.17-4.44,8.54-1.37,2.36-2.45,3.98-3.24,4.84-.47,0-1.12.03-1.95.1-.83.07-1.66.18-2.5.35-.83.17-1.55.41-2.15.75-.6.33-.9.76-.9,1.3s.3.96.9,1.3c.6.33,1.46.5,2.59.5,1.33,0,2.96-1.07,4.89-3.19,3.19-.53,6.5-1.73,9.93-3.59,3.43-1.86,6.84-4.21,10.23-7.04,3.39-2.83,6.72-6.04,9.98-9.63,3.26-3.59,6.32-7.39,9.18-11.38,2.86-3.99,5.51-8.07,7.94-12.23,2.43-4.16,4.48-8.24,6.14-12.23-.8,3.79-1.76,7.7-2.89,11.73-1.13,4.03-2.3,7.97-3.49,11.83-1.2,3.86-2.43,7.56-3.69,11.08-1.26,3.53-2.46,6.69-3.59,9.48-1.13,2.8-2.16,5.14-3.09,7.04-.93,1.9-1.7,3.18-2.3,3.84-.47,0-1.12.03-1.95.1-.83.07-1.67.18-2.5.35-.83.17-1.55.41-2.15.75-.6.33-.9.76-.9,1.3s.3.96.9,1.3c.6.33,1.46.5,2.6.5,1.4,0,3.03-1.03,4.89-3.09,4.19-.67,8.29-2.46,12.28-5.39,3.99-2.93,7.95-6.54,11.88-10.83,3.93-4.29,7.84-9.05,11.73-14.28,3.89-5.22,7.8-10.53,11.73-15.92,3.92-5.39,7.9-10.63,11.93-15.72,4.03-5.09,8.14-9.6,12.33-13.53,4.19-3.93,6.97-6.42,11.37-8.81,9.96-5.4,17.11-3.95,18.48-3.32,1.36.63,2.35,1.43,2.95,2.4,1.18,1.94.93,5.21.8,6.14,0,0,2.07-5.21-1-8.39Zm-80.41,17.77l.1-.5v-.2c.13-2.53.3-4.44.5-5.74.2-1.3.73-1.95,1.6-1.95.27,0,.41.1.45.3.03.2.05.37.05.5.13.93-.08,2.08-.65,3.44-.57,1.37-1.25,2.81-2.05,4.34v-.2Z"/></svg>