<?xml version="1.0" encoding="UTF-8"?><svg id="Layer_1" xmlns="http://www.w3.org/2000/svg" viewBox="0 0 595.28 418.14"><defs><style>.cls-1{fill:#757d7d;stroke-width:0px;}</style></defs><path class="cls-1" d="m258.09,120.84c-1.02-1.08-2.42-1.96-4.2-2.63-1.78-.67-8.35-2.08-15.89,2.44-3.93,2.2-7.72,5.31-11.5,9.07-3.79,3.76-7.56,8.07-11.31,12.94-3.76,4.87-7.51,9.88-11.27,15.04-3.76,5.15-7.48,10.26-11.17,15.32-3.69,5.06-7.38,9.69-11.07,13.89-3.69,4.2-7.4,7.77-11.12,10.69-3.72,2.93-7.43,4.8-11.12,5.63,2.8-3.31,5.39-7.51,7.78-12.6,2.39-5.09,4.54-10.52,6.45-16.28,1.91-5.76,3.5-11.55,4.77-17.38,1.27-5.82,2.13-11.12,2.58-15.89,1.08-1.84,2.05-3.74,2.91-5.68.86-1.94,1.19-3.55,1-4.82-.06-.51-.24-.95-.53-1.34-.29-.38-.72-.57-1.29-.57-1.66,0-2.85.65-3.58,1.96-.73,1.31-1.26,2.98-1.58,5.01-.19,3.31-.67,6.94-1.43,10.88-1.47,3.88-3.36,7.89-5.68,12.03-2.32,4.14-4.9,8.2-7.73,12.17-2.83,3.98-5.84,7.8-9.02,11.46-3.18,3.66-6.41,6.94-9.69,9.83-3.28,2.9-6.51,5.33-9.69,7.3-3.18,1.97-6.17,3.28-8.97,3.91,1.46-1.72,3.04-3.87,4.73-6.44,1.69-2.58,3.36-5.41,5.01-8.5,1.65-3.09,3.23-6.38,4.73-9.88,1.49-3.5,2.83-7.06,4.01-10.69,1.18-3.63,2.12-7.22,2.82-10.79.7-3.56,1.05-6.97,1.05-10.21,0-4.2-.62-7.84-1.86-10.93-1.24-3.09-2.88-5.63-4.92-7.64-2.04-2-4.38-3.5-7.02-4.49-2.64-.99-5.36-1.48-8.16-1.48-5.16,0-9.76,1.13-13.8,3.39-4.04,2.26-7.45,5.12-10.21,8.59s-4.88,7.3-6.35,11.5c-1.46,4.2-2.2,8.24-2.2,12.13,0,2.48.3,4.84.91,7.06.6,2.23,1.54,4.17,2.82,5.82,1.27,1.66,2.88,2.96,4.82,3.91,1.94.95,4.25,1.43,6.92,1.43s5.32-.65,7.73-2.29c2.61-1.77,3.58-5,3.58-5,0,0-2.25,2.69-3.91,3.85-2.2,1.53-4.66,2.29-7.4,2.29-2.29,0-4.26-.38-5.92-1.14-1.66-.76-3.02-1.83-4.11-3.2-1.08-1.37-1.88-2.96-2.39-4.77-.51-1.81-.76-3.77-.76-5.87,0-3.75.76-7.73,2.29-11.93,1.53-4.2,3.71-8.08,6.54-11.65,2.83-3.56,6.21-6.52,10.12-8.88,3.91-2.35,8.26-3.53,13.03-3.53,2.23,0,4.33.38,6.3,1.15,1.97.76,3.69,1.96,5.16,3.58,1.46,1.62,2.62,3.69,3.48,6.21.86,2.51,1.29,5.52,1.29,9.02s-.4,7.53-1.19,11.69c-.8,4.17-1.83,8.32-3.1,12.46-1.27,4.14-2.67,8.16-4.2,12.08-1.53,3.91-3.06,7.46-4.58,10.64-1.53,3.18-2.95,5.9-4.25,8.16-1.31,2.26-2.34,3.8-3.1,4.63-.45,0-1.07.03-1.86.09-.8.06-1.59.18-2.39.34-.8.16-1.48.4-2.05.72-.57.32-.86.73-.86,1.24s.29.92.86,1.24c.57.32,1.4.48,2.48.48,1.27,0,2.83-1.02,4.68-3.06,3.06-.51,6.22-1.66,9.5-3.44,3.28-1.78,6.54-4.02,9.79-6.73,3.25-2.71,6.43-5.78,9.55-9.21,3.12-3.44,6.05-7.06,8.78-10.88,2.74-3.82,5.27-7.72,7.59-11.69,2.32-3.98,4.28-7.88,5.87-11.69-.76,3.63-1.69,7.37-2.77,11.22-1.08,3.85-2.2,7.62-3.34,11.31-1.15,3.69-2.32,7.23-3.53,10.6-1.21,3.37-2.36,6.4-3.44,9.07-1.08,2.67-2.07,4.92-2.96,6.73-.89,1.82-1.62,3.04-2.2,3.68-.45,0-1.07.03-1.86.09-.8.06-1.59.18-2.39.34-.8.16-1.48.4-2.05.72-.57.32-.86.73-.86,1.24s.29.92.86,1.24c.57.32,1.4.48,2.48.48,1.34,0,2.9-.99,4.68-2.96,4.01-.64,7.92-2.36,11.74-5.16,3.82-2.8,7.6-6.25,11.36-10.36,3.75-4.1,7.49-8.65,11.22-13.65,3.72-4.99,7.46-10.07,11.22-15.23,3.75-5.16,7.56-10.17,11.41-15.04,3.85-4.87,7.78-9.18,11.79-12.94,4.01-3.75,6.66-6.14,10.87-8.42,9.53-5.16,16.37-3.78,17.67-3.18,1.3.61,2.24,1.37,2.82,2.29,1.13,1.85.89,4.98.76,5.87,0,0,1.98-4.98-.95-8.02Zm-76.9,16.99l.1-.48v-.19c.13-2.42.29-4.25.48-5.49.19-1.24.7-1.86,1.53-1.86.25,0,.4.1.43.29.03.19.05.35.05.48.13.89-.08,1.99-.62,3.29-.54,1.31-1.19,2.69-1.96,4.15v-.19Z"/><path class="cls-1" d="m233.23,200.46v-.19c1.27,0,2.66-.62,4.15-1.86,1.49-1.24,2.5-2.75,3.01-4.54l3.25-12.79h-26.92l-10.98,12.41c-1.27,1.53-1.91,2.93-1.91,4.2,0,1.72.79,2.58,2.39,2.58v.19h-12.7v-.19c.64,0,1.42-.21,2.34-.62.92-.41,1.89-.94,2.91-1.58,1.02-.64,2.02-1.37,3.01-2.2.99-.83,1.8-1.62,2.43-2.39l53.08-59.86h2.29l-15.18,60.24c-.19.7-.27,1.43-.24,2.2.03.76.17,1.45.43,2.05.25.61.6,1.12,1.05,1.53.45.42.99.62,1.62.62v.19h-14.03Zm-15.56-20.53l26.25.1,10.69-41.91-36.95,41.82Z"/><path class="cls-1" d="m291.36,133.63v.19c1.08,0,1.62.7,1.62,2.1,0,.7-.13,1.45-.38,2.24-.26.8-.57,1.54-.95,2.24l-31.03,53.75c-.38.64-.89,1.32-1.53,2.05-.64.73-1.32,1.4-2.05,2.01-.73.61-1.45,1.1-2.15,1.48-.7.38-1.34.57-1.91.57v.19h37.23l6.49-8c-.37-.19-.19-.11-.7-.32-.31.26-.32.21-.68.49-1.37,1.08-2.88,2.12-4.53,3.1-1.66.99-3.34,1.83-5.06,2.53-1.72.7-3.31,1.05-4.77,1.05h-19.09l34.46-59.48c.38-.64.89-1.3,1.53-2.01.64-.7,1.29-1.35,1.96-1.96.67-.6,1.35-1.1,2.05-1.48.7-.38,1.34-.57,1.91-.57v-.19h-12.41Z"/><path class="cls-1" d="m363.92,140.22c.83-.64,1.43-1.32,1.81-2.05.38-.73.57-1.45.57-2.15,0-.64-.16-1.16-.48-1.58-.32-.41-.76-.62-1.34-.62v-.19h13.27v.19c-.57,0-1.4.22-2.48.67-1.08.45-2.23,1-3.44,1.67-1.21.67-2.4,1.38-3.58,2.15-1.18.76-2.15,1.43-2.91,2.01l-32.08,24.34c1.91-.76,3.95-1.14,6.11-1.14,1.34,0,2.62.18,3.87.52,1.24.35,2.34.91,3.29,1.67s1.72,1.73,2.29,2.91c.57,1.18.86,2.59.86,4.25,0,1.85-.24,3.84-.72,5.97-.48,2.13-1,4.25-1.58,6.35-.57,2.1-1.1,4.1-1.58,6.01-.48,1.91-.72,3.57-.72,4.97,0,1.27.25,2.28.76,3.01.51.73,1.43,1.1,2.77,1.1l-.1.19h-3.63c-1.85,0-3.1-.44-3.77-1.34s-1-2.07-1-3.53.29-3.29.86-5.3,1.19-4.09,1.86-6.25c.67-2.16,1.27-4.31,1.81-6.45.54-2.13.81-4.06.81-5.78,0-2.61-.8-4.45-2.39-5.54-1.59-1.08-3.41-1.62-5.44-1.62-1.34,0-2.66.19-3.96.57-1.31.38-2.37.92-3.2,1.62l-4.49,3.34-13.75,23.77.1-.1c-.32.64-.59,1.32-.81,2.05-.22.73-.33,1.45-.33,2.15,0,.64.13,1.16.38,1.58.25.42.67.62,1.24.62v.19h-12.51v-.19c.57,0,1.23-.17,1.96-.52.73-.35,1.45-.83,2.15-1.43.7-.6,1.38-1.3,2.05-2.1.67-.79,1.23-1.61,1.67-2.43l31.12-53.94c.64-1.4.95-2.67.95-3.82,0-.64-.11-1.16-.33-1.58-.22-.41-.62-.62-1.19-.62v-.19h12.41v.19c-.57,0-1.21.19-1.91.57-.7.38-1.38.88-2.05,1.48-.67.61-1.32,1.26-1.96,1.96-.64.7-1.15,1.37-1.53,2.01l-16.42,28.26,36.66-27.88Z"/><path class="cls-1" d="m354.57,200.46v-.19c.57,0,1.19-.17,1.86-.52.67-.35,1.35-.81,2.05-1.38.7-.57,1.37-1.21,2-1.91.64-.7,1.15-1.37,1.53-2.01l31.6-54.61c.7-1.4,1.05-2.67,1.05-3.82,0-1.46-.57-2.2-1.72-2.2v-.19h12.51v.19c-.57,0-1.19.18-1.86.52-.67.35-1.35.81-2.05,1.38-.7.57-1.37,1.21-2,1.91-.64.7-1.15,1.37-1.53,2.01l-31.79,54.99c-.51,1.21-.76,2.36-.76,3.44,0,.64.13,1.16.38,1.58.25.42.67.62,1.24.62v.19h-12.51Z"/><path class="cls-1" d="m379.96,200.46v-.19c.57,0,1.23-.19,1.96-.57.73-.38,1.46-.86,2.2-1.43.73-.57,1.42-1.21,2.05-1.91.64-.7,1.18-1.37,1.62-2.01l31.7-54.89c.51-1.15.76-2.23.76-3.25,0-.7-.14-1.27-.43-1.72-.29-.45-.78-.67-1.48-.67l.1-.19h5.82l1.72,59.57,29.4-50.98c.89-1.59,1.34-3.18,1.34-4.77,0-1.02-.19-1.88-.57-2.58-.38-.7-.92-1.05-1.62-1.05v-.19h11.27v.19c-.57,0-1.23.19-1.96.57-.73.38-1.47.86-2.2,1.43-.73.57-1.42,1.21-2.05,1.91-.64.7-1.18,1.37-1.62,2l-35.04,60.72h-1.14l-1.34-60.62-30.93,53.65.38-.57c-.64,1.15-.96,2.45-.96,3.91,0,.89.18,1.69.53,2.39.35.7.87,1.05,1.58,1.05v.19h-11.07Zm75.52-58.43l-.1.19c-.06.06-.1.11-.1.14,0,.03-.03.08-.1.14l.29-.48Z"/><path class="cls-1" d="m514.81,135.14c-.16.16-.31.35-.48.5-.73.64-1.45.95-2.15.95-.38,0-.73-.19-1.05-.57-.32-.38-.78-.8-1.38-1.24s-1.38-.86-2.34-1.24c-.96-.38-2.23-.57-3.82-.57-4.2,0-8.42.97-12.65,2.91-4.23,1.94-8.32,4.5-12.27,7.69-3.95,3.18-7.61,6.81-10.98,10.88-3.38,4.07-6.3,8.24-8.78,12.51-2.29,4.01-4.09,7.91-5.39,11.69-1.31,3.79-1.96,7.24-1.96,10.36,0,3.63.99,6.54,2.96,8.74,1.97,2.2,5.19,3.29,9.64,3.29,2.42,0,4.58-.37,6.49-1.1,1.91-.73,3.69-1.73,5.35-3.01.7-.38,1.3-.57,1.82-.57,1.02,0,1.53.61,1.53,1.82,0,.51-.1,1.05-.29,1.62-.08.24-.2.48-.33.73.15.02.29.06.42.11l16.81-29.1c.38-.64.89-1.32,1.53-2.05.64-.73,1.32-1.4,2.05-2.01.73-.6,1.45-1.1,2.15-1.48.2-.11.39-.2.57-.27-.02-.16-.02-.33,0-.49h-10.67c-.02.08-.05.16-.08.23.36.08.64.27.83.58.25.42.38.97.38,1.67,0,1.02-.32,2.23-.95,3.63l-8.69,15.08c-1.08,1.85-2.21,3.58-3.39,5.2-1.18,1.62-2.5,3.04-3.96,4.25-1.47,1.21-3.07,2.16-4.82,2.86-1.75.7-3.74,1.05-5.97,1.05-3.25,0-5.57-.87-6.97-2.63-1.4-1.75-2.1-4.06-2.1-6.92,0-3.05.68-6.55,2.05-10.5,1.37-3.94,3.23-8,5.58-12.17,2.35-4.17,5.11-8.26,8.26-12.27,3.15-4.01,6.46-7.57,9.93-10.69,3.47-3.12,7.02-5.65,10.64-7.59,3.63-1.94,7.13-2.91,10.5-2.91,1.91,0,3.5.51,4.77,1.53,1.27,1.02,1.91,2.61,1.91,4.77,0,1.08-.21,2.35-.62,3.82-.22.76-.51,1.58-.87,2.44.19.08.36.18.5.31l6.74-11.43c-.2-.08-.31-.28-.46-.41Z"/><path class="cls-1" d="m111.03,232.98v.19c-1.27,0-2.64.62-4.1,1.86-1.47,1.24-2.48,2.75-3.06,4.54l-17.57,53.08,43.63-52.8.1-.29c.19-.7.29-1.4.29-2.1,0-1.14-.27-2.15-.81-3.01-.54-.86-1.29-1.29-2.24-1.29v-.19h14.03l.57.19c-1.08,0-2.55.57-4.39,1.72-.7.57-1.35,1.26-1.96,2.05-.61.8-1.07,1.67-1.38,2.62l-17.38,52.89,43.53-52.7c.7-.76,1.19-1.51,1.48-2.24.29-.73.43-1.38.43-1.96,0-.7-.21-1.27-.62-1.72-.41-.45-.97-.67-1.67-.67v-.19h12.32v.19c-.64,0-1.43.21-2.39.62-.96.41-1.93.94-2.91,1.58-.99.64-1.96,1.34-2.91,2.1-.95.76-1.72,1.53-2.29,2.29l-50.12,60.53h-1.34l.19-.19,18.62-57.57-47.83,57.76h-1.24l19.67-60.72c.19-.7.29-1.4.29-2.1,0-1.14-.27-2.15-.81-3.01-.54-.86-1.29-1.29-2.24-1.29v-.19h14.13Z"/><path class="cls-1" d="m219.01,232.98h-35.04v.19c.64,0,1.08.21,1.34.62.25.41.38.94.38,1.58,0,.95-.25,2-.76,3.15l-31.7,54.99c-.38.64-.89,1.32-1.53,2.05-.64.73-1.32,1.4-2.05,2.01-.73.61-1.45,1.1-2.15,1.48-.7.38-1.34.57-1.91.57v.19h36.37l7.57-8.66c-.15-.07-.27-.17-.38-.27-.49.39-1.01.8-1.6,1.24-1.5,1.12-3.12,2.15-4.87,3.1-1.75.95-3.52,1.77-5.3,2.43-1.78.67-3.4,1-4.87,1h-18.04l18.33-31.7h11.26c3.18,0,4.77,1.08,4.77,3.25,0,.52-.14,1.15-.4,1.88.13.06.24.14.34.22l6.79-11.65c-.14-.03-.27-.08-.39-.15-1.07,1.31-2.26,2.43-3.62,3.31-2.07,1.34-4.34,2.01-6.83,2.01h-11.27l18.33-31.7h19.57c1.59,0,2.64.45,3.15,1.34.51.89.76,1.88.76,2.96,0,.86-.1,1.68-.25,2.49.22.06.42.15.59.27l3.39-8.11h-.1l.1-.1Z"/><path class="cls-1" d="m195.33,299.81v-.19c.57,0,1.21-.19,1.91-.57.7-.38,1.42-.87,2.15-1.48.73-.6,1.42-1.27,2.05-2.01.64-.73,1.14-1.41,1.53-2.05l31.7-54.99c.51-1.15.76-2.2.76-3.15,0-.64-.13-1.16-.38-1.58-.25-.41-.7-.62-1.34-.62v-.19h16.71c4.9,0,8.42,1.18,10.55,3.53,2.13,2.36,3.2,5.41,3.2,9.17,0,3.25-.7,6.83-2.1,10.74-1.4,3.91-3.34,7.88-5.82,11.89-2.48,4.01-5.39,7.91-8.74,11.69-3.34,3.79-6.95,7.15-10.84,10.07-3.88,2.93-7.94,5.28-12.17,7.06-4.23,1.78-8.45,2.67-12.65,2.67h-16.52Zm8.88-1.14h8.4c3.56,0,7.21-.91,10.93-2.72,3.72-1.81,7.34-4.23,10.84-7.26,3.5-3.02,6.81-6.45,9.93-10.26,3.12-3.82,5.84-7.73,8.16-11.74,2.32-4.01,4.17-7.94,5.54-11.79,1.37-3.85,2.05-7.3,2.05-10.36s-.81-5.63-2.43-7.54c-1.62-1.91-4.25-2.86-7.88-2.86h-8.21l-37.33,64.54Z"/><path class="cls-1" d="m248.32,299.81v-.19c.57,0,1.21-.19,1.91-.57.7-.38,1.42-.87,2.15-1.48.73-.6,1.42-1.27,2.05-2.01.64-.73,1.14-1.41,1.53-2.05l31.7-54.99c.51-1.15.76-2.2.76-3.15,0-.64-.13-1.16-.38-1.58-.25-.41-.7-.62-1.34-.62v-.19h16.71c4.9,0,8.42,1.18,10.55,3.53,2.13,2.36,3.2,5.41,3.2,9.17,0,3.25-.7,6.83-2.1,10.74-1.4,3.91-3.34,7.88-5.82,11.89-2.48,4.01-5.39,7.91-8.74,11.69-3.34,3.79-6.95,7.15-10.84,10.07-3.88,2.93-7.94,5.28-12.17,7.06-4.23,1.78-8.45,2.67-12.65,2.67h-16.52Zm8.88-1.14h8.4c3.56,0,7.21-.91,10.93-2.72,3.72-1.81,7.34-4.23,10.84-7.26,3.5-3.02,6.81-6.45,9.93-10.26,3.12-3.82,5.84-7.73,8.16-11.74,2.32-4.01,4.17-7.94,5.54-11.79,1.37-3.85,2.05-7.3,2.05-10.36s-.81-5.63-2.43-7.54c-1.62-1.91-4.25-2.86-7.88-2.86h-8.21l-37.33,64.54Z"/><path class="cls-1" d="m301.3,299.81v-.19c.57,0,1.19-.17,1.86-.52.67-.35,1.35-.81,2.05-1.38.7-.57,1.37-1.21,2-1.91.64-.7,1.15-1.37,1.53-2.01l31.6-54.61c.7-1.4,1.05-2.67,1.05-3.82,0-1.46-.57-2.2-1.72-2.2v-.19h12.51v.19c-.57,0-1.19.18-1.86.52-.67.35-1.35.81-2.05,1.38-.7.57-1.37,1.21-2,1.91-.64.7-1.15,1.37-1.53,2.01l-31.79,54.99c-.51,1.21-.76,2.36-.76,3.44,0,.64.13,1.16.38,1.58.25.42.67.62,1.24.62v.19h-12.51Z"/><path class="cls-1" d="m326.7,299.81v-.19c.57,0,1.23-.19,1.96-.57.73-.38,1.46-.86,2.2-1.43.73-.57,1.42-1.21,2.05-1.91.64-.7,1.18-1.37,1.62-2.01l31.7-54.89c.51-1.15.76-2.23.76-3.25,0-.7-.14-1.27-.43-1.72-.29-.45-.78-.67-1.48-.67l.1-.19h5.82l1.72,59.57,29.4-50.98c.89-1.59,1.34-3.18,1.34-4.77,0-1.02-.19-1.88-.57-2.58-.38-.7-.92-1.05-1.62-1.05v-.19h11.27v.19c-.57,0-1.23.19-1.96.57-.73.38-1.47.86-2.2,1.43-.73.57-1.42,1.21-2.05,1.91-.64.7-1.18,1.37-1.62,2l-35.04,60.72h-1.14l-1.34-60.62-30.93,53.65.38-.57c-.64,1.15-.96,2.45-.96,3.91,0,.89.18,1.69.53,2.39.35.7.87,1.05,1.58,1.05v.19h-11.07Zm75.52-58.43l-.1.19c-.06.06-.1.11-.1.14,0,.03-.03.08-.1.14l.29-.48Z"/><path class="cls-1" d="m437.82,264.77c.57,0,.99.21,1.24.62.25.42.38.97.38,1.67,0,1.02-.32,2.23-.95,3.63l-8.69,15.08c-1.08,1.85-2.21,3.58-3.39,5.2-1.18,1.62-2.5,3.04-3.96,4.25-1.47,1.21-3.07,2.16-4.82,2.86-1.75.7-3.74,1.05-5.97,1.05-3.25,0-5.57-.87-6.97-2.63-1.4-1.75-2.1-4.06-2.1-6.92,0-3.05.68-6.55,2.05-10.5,1.37-3.94,3.23-8,5.58-12.17,2.35-4.17,5.11-8.26,8.26-12.27s6.46-7.57,9.93-10.69c3.47-3.12,7.02-5.65,10.64-7.59,3.63-1.94,7.13-2.91,10.5-2.91,1.91,0,3.5.51,4.77,1.53,1.27,1.02,1.91,2.61,1.91,4.77,0,1.08-.21,2.35-.62,3.82-.17.58-.39,1.21-.64,1.85.25.04.47.13.65.26l7.36-12.47c-.14,0-.28-.02-.4-.04-.45.68-.95,1.3-1.54,1.81-.73.64-1.45.95-2.15.95-.38,0-.73-.19-1.05-.57-.32-.38-.78-.8-1.38-1.24s-1.38-.86-2.34-1.24c-.96-.38-2.23-.57-3.82-.57-4.2,0-8.42.97-12.65,2.91-4.23,1.94-8.32,4.5-12.27,7.69-3.95,3.18-7.61,6.81-10.98,10.88-3.38,4.07-6.3,8.24-8.78,12.51-2.29,4.01-4.09,7.91-5.39,11.69-1.31,3.79-1.96,7.24-1.96,10.36,0,3.63.99,6.54,2.96,8.74,1.97,2.2,5.19,3.29,9.64,3.29,2.42,0,4.58-.37,6.49-1.1,1.91-.73,3.69-1.73,5.35-3.01.7-.38,1.3-.57,1.82-.57,1.02,0,1.53.61,1.53,1.82,0,.51-.1,1.05-.29,1.62-.02.07-.08.15-.11.23.14.09.26.19.36.31l16.64-28.8c.38-.64.89-1.32,1.53-2.05.64-.73,1.32-1.4,2.05-2.01.73-.6,1.45-1.1,2.15-1.48.7-.38,1.34-.57,1.91-.57v-.19h-12.51v.19Z"/><path class="cls-1" d="m511.52,235.39c-.68.57-1.44,1.12-2.15,1.12-.51,0-.99-.22-1.43-.67-.45-.45-1-.94-1.67-1.48-.67-.54-1.58-1.03-2.72-1.48-1.15-.45-2.67-.67-4.58-.67-2.36,0-4.93.52-7.73,1.58-2.8,1.05-5.39,2.48-7.78,4.3-2.39,1.81-4.38,3.91-5.97,6.3-1.59,2.39-2.39,4.92-2.39,7.59,0,2.29.6,4.41,1.81,6.35,1.21,1.94,2.56,3.88,4.06,5.82,1.49,1.94,2.85,3.95,4.06,6.01,1.21,2.07,1.81,4.34,1.81,6.83,0,3.05-.84,5.95-2.53,8.69-1.69,2.74-3.82,5.12-6.4,7.16-2.58,2.04-5.41,3.64-8.5,4.82-3.09,1.18-6.03,1.77-8.83,1.77s-4.88-.6-6.63-1.82c-1.75-1.21-2.63-3.15-2.63-5.82,0-1.14.21-2.45.62-3.91.21-.73.47-1.5.8-2.32-.22-.05-.4-.13-.56-.24l-7.23,12.5c.21.05.4.14.57.25.13-.13.24-.28.37-.41.7-.67,1.43-1,2.2-1,.57,0,1.13.21,1.67.62.54.42,1.21.88,2.01,1.38.79.51,1.81.97,3.06,1.38,1.24.41,2.82.62,4.73.62,2.61,0,5.31-.37,8.11-1.1,2.8-.73,5.52-1.83,8.16-3.29,2.64-1.46,5.12-3.26,7.45-5.39,2.32-2.13,4.28-4.63,5.87-7.49.89-1.59,1.54-3.09,1.96-4.49.41-1.4.62-2.73.62-4.01,0-2.55-.64-4.87-1.91-6.97-1.27-2.1-2.67-4.12-4.2-6.06-1.53-1.94-2.93-3.91-4.2-5.92-1.27-2.01-1.91-4.18-1.91-6.54s.57-4.5,1.72-6.44c1.15-1.94,2.62-3.61,4.44-5.01,1.81-1.4,3.85-2.48,6.11-3.25,2.26-.76,4.47-1.15,6.64-1.15,2.42,0,4.42.61,6.01,1.82,1.59,1.21,2.39,3.02,2.39,5.44,0,1.53-.38,3.26-1.12,5.16.24.06.45.16.63.3l5.82-10.34c-.25-.13-.45-.32-.59-.54Z"/></svg>